<svg width="16" height="19" viewBox="0 0 16 19" fill="none" xmlns="http://www.w3.org/2000/svg">
<path d="M8 9.5C8.55 9.5 9.021 9.3138 9.413 8.9414C9.805 8.569 10.0007 8.12187 10 7.6C10 7.0775 9.804 6.63005 9.412 6.25765C9.02 5.88525 8.54933 5.69937 8 5.7C7.45 5.7 6.979 5.8862 6.587 6.2586C6.195 6.631 5.99933 7.07813 6 7.6C6 8.1225 6.196 8.56995 6.588 8.94235C6.98 9.31475 7.45067 9.50063 8 9.5ZM8 19C5.31667 16.8308 3.31267 14.8162 1.988 12.9561C0.663333 11.096 0.000666667 9.37397 0 7.79C0 5.415 0.804333 3.52292 2.413 2.11375C4.02167 0.704583 5.884 0 8 0C10.1167 0 11.9793 0.704583 13.588 2.11375C15.1967 3.52292 16.0007 5.415 16 7.79C16 9.37333 15.3373 11.0954 14.012 12.9561C12.6867 14.8168 10.6827 16.8315 8 19Z" fill="black"/>
</svg>
