<svg width="45" height="39" viewBox="0 0 45 39" fill="none" xmlns="http://www.w3.org/2000/svg">
<path d="M21.6832 20.7205H21.4433L21.4334 20.9602C21.3141 23.8541 20.145 28.1812 17.039 31.8392C13.9402 35.4887 8.89988 38.4889 1.0003 38.7227C0.591473 38.7348 0.25 38.401 0.25 37.9874V25.8643C0.25 25.4397 0.610204 25.0823 1.06542 25.0588C3.99155 24.908 7.9017 23.5581 11.1212 19.9045C14.3417 16.2498 16.8526 10.3117 17.0229 1.01598C17.0307 0.593388 17.3727 0.25 17.7822 0.25H26.909C27.326 0.25 27.6667 0.588518 27.6746 1.01263C27.7536 5.27958 28.6292 11.1778 31.0533 16.0655C33.4807 20.9597 37.4814 24.8732 43.8046 25.0627C44.247 25.076 44.6015 25.4262 44.6015 25.845V38.0238C44.6015 38.4319 44.2848 38.7534 43.8957 38.7483C40.5544 38.7048 35.9047 37.8229 31.8881 35.2809C27.8808 32.7448 24.4956 28.5527 23.6619 21.8579C23.5832 21.2259 23.0527 20.7205 22.4001 20.7205H21.6832ZM35.5145 14.6676C35.3209 14.814 35.0533 14.6266 35.1246 14.3947L36.0823 11.2819C36.1774 10.9729 36.0637 10.6377 35.8002 10.4503L33.3511 8.70794C33.1527 8.56681 33.2526 8.25423 33.496 8.25423H36.5256C36.8564 8.25423 37.1481 8.03753 37.2437 7.72086L38.226 4.46477C38.2975 4.22772 38.6332 4.22772 38.7047 4.46477L39.687 7.72086C39.7826 8.03753 40.0743 8.25423 40.4051 8.25423H43.4347C43.6781 8.25423 43.778 8.56681 43.5796 8.70794L41.1305 10.4503C40.867 10.6377 40.7533 10.9729 40.8484 11.2819L41.8061 14.3947C41.8774 14.6266 41.6097 14.814 41.4162 14.6676L38.918 12.7767C38.6502 12.5741 38.2805 12.5741 38.0127 12.7767L35.5145 14.6676Z" fill="black" stroke="black" stroke-width="0.5"/>
</svg>
