<svg width="25" height="24" viewBox="0 0 25 24" fill="none" xmlns="http://www.w3.org/2000/svg">
<path d="M24.6977 8.27066L22.3992 6.06396C22.2138 5.88832 21.9665 5.78576 21.7062 5.7765C21.4459 5.76725 21.1914 5.85197 20.9929 6.01395C20.6865 6.26434 20.2933 6.39508 19.8912 6.38027C19.4891 6.36545 19.1075 6.20615 18.822 5.93394C18.5386 5.65986 18.3728 5.2936 18.3573 4.90769C18.3419 4.52179 18.478 4.14439 18.7387 3.85025C18.9074 3.65971 18.9956 3.41539 18.986 3.16547C18.9763 2.91555 18.8695 2.67817 18.6866 2.50013L16.386 0.290928C16.1915 0.104631 15.9281 0 15.6534 0C15.3787 0 15.1152 0.104631 14.9208 0.290928L11.2566 3.80825C11.0304 4.02622 10.8598 4.2915 10.7581 4.58332C10.7383 4.63943 10.7054 4.6904 10.6617 4.73229C10.6181 4.77417 10.565 4.80585 10.5066 4.82484C10.2025 4.92241 9.92611 5.08639 9.69924 5.30389L0.303034 14.3247C0.108984 14.5114 0 14.7643 0 15.028C0 15.2917 0.108984 15.5447 0.303034 15.7313L2.60417 17.938C2.78961 18.1137 3.03687 18.2162 3.29719 18.2255C3.55751 18.2348 3.812 18.15 4.01047 17.9881C4.31615 17.7356 4.7099 17.6034 5.11281 17.618C5.51573 17.6325 5.89804 17.7927 6.18315 18.0664C6.46825 18.3401 6.63508 18.7071 6.65021 19.0939C6.66534 19.4808 6.52765 19.8588 6.26473 20.1522C6.096 20.3428 6.00776 20.5871 6.0174 20.837C6.02704 21.087 6.13387 21.3243 6.31681 21.5024L8.61534 23.7091C8.80976 23.8954 9.07323 24 9.34792 24C9.62261 24 9.88608 23.8954 10.0805 23.7091L19.4767 14.6882C19.7031 14.4705 19.8739 14.2054 19.9757 13.9137C19.9954 13.8574 20.0284 13.8062 20.0721 13.7643C20.1159 13.7223 20.1691 13.6906 20.2278 13.6717C20.5316 13.5741 20.8077 13.4103 21.0346 13.1931L24.6983 9.67529C24.8916 9.48865 25.0001 9.2361 25 8.97287C24.9999 8.70964 24.8912 8.45716 24.6977 8.27066ZM12.803 6.78802C12.7256 6.86234 12.6337 6.92129 12.5326 6.9615C12.4315 7.00172 12.3231 7.02242 12.2137 7.02242C12.1042 7.02242 11.9958 7.00172 11.8947 6.9615C11.7936 6.92129 11.7017 6.86234 11.6243 6.78802L11.0248 6.21247C10.8723 6.06167 10.7878 5.85933 10.7894 5.64917C10.7911 5.439 10.8788 5.2379 11.0336 5.08933C11.1884 4.94075 11.398 4.85662 11.6169 4.85513C11.8358 4.85365 12.0465 4.93491 12.2035 5.08137L12.803 5.65642C12.8804 5.73072 12.9418 5.81892 12.9837 5.916C13.0256 6.01309 13.0472 6.11714 13.0472 6.22222C13.0472 6.3273 13.0256 6.43136 12.9837 6.52844C12.9418 6.62552 12.8804 6.71373 12.803 6.78802ZM15.0948 8.98822C14.9385 9.13815 14.7266 9.22237 14.5057 9.22237C14.2847 9.22237 14.0729 9.13815 13.9166 8.98822L13.3437 8.43817C13.2663 8.36387 13.2049 8.27566 13.163 8.17858C13.1211 8.0815 13.0995 7.97745 13.0995 7.87237C13.0995 7.76729 13.1211 7.66324 13.163 7.56616C13.2049 7.46908 13.2663 7.38087 13.3437 7.30657C13.5 7.15651 13.712 7.07221 13.933 7.07221C14.0424 7.07221 14.1508 7.0929 14.2519 7.13312C14.3531 7.17333 14.445 7.23227 14.5223 7.30657L15.0953 7.85662C15.173 7.93091 15.2346 8.01919 15.2767 8.11639C15.3187 8.21359 15.3404 8.31781 15.3405 8.42307C15.3405 8.52833 15.3189 8.63257 15.277 8.7298C15.235 8.82704 15.1734 8.91537 15.0958 8.98973L15.0948 8.98822ZM17.3865 11.1884C17.3091 11.2627 17.2173 11.3217 17.1161 11.3619C17.015 11.4021 16.9066 11.4228 16.7972 11.4228C16.6877 11.4228 16.5793 11.4021 16.4782 11.3619C16.3771 11.3217 16.2852 11.2627 16.2078 11.1884L15.6349 10.6384C15.4824 10.4876 15.3979 10.2852 15.3995 10.0751C15.4011 9.86491 15.4889 9.66381 15.6437 9.51523C15.7985 9.36665 16.008 9.28253 16.2269 9.28104C16.4458 9.27955 16.6566 9.36082 16.8136 9.50727L17.3865 10.0573C17.4644 10.1315 17.5263 10.2197 17.5686 10.3169C17.6109 10.414 17.6328 10.5183 17.633 10.6236C17.6333 10.7289 17.6118 10.8333 17.57 10.9306C17.5281 11.028 17.4667 11.1164 17.3891 11.1909L17.3865 11.1884ZM19.7007 13.4156C19.6233 13.4899 19.5314 13.5489 19.4303 13.5891C19.3292 13.6293 19.2208 13.65 19.1113 13.65C19.0019 13.65 18.8935 13.6293 18.7924 13.5891C18.6912 13.5489 18.5994 13.4899 18.522 13.4156L17.9261 12.8406C17.8471 12.7665 17.7842 12.6781 17.7411 12.5805C17.6979 12.4828 17.6755 12.378 17.6749 12.2719C17.6744 12.1659 17.6958 12.0608 17.738 11.9628C17.7801 11.8648 17.8422 11.7758 17.9205 11.701C17.9987 11.6262 18.0917 11.5671 18.194 11.5271C18.2963 11.4871 18.4059 11.467 18.5163 11.4681C18.6268 11.4691 18.7359 11.4912 18.8374 11.5331C18.9389 11.5749 19.0306 11.6357 19.1074 11.712L19.7038 12.2865C19.7812 12.3609 19.8425 12.4491 19.8844 12.5462C19.9262 12.6433 19.9477 12.7473 19.9477 12.8524C19.9476 12.9575 19.926 13.0616 19.8841 13.1586C19.8422 13.2557 19.7807 13.3439 19.7033 13.4181L19.7007 13.4156Z" fill="black"/>
</svg>
